<svg width="16" height="22" viewBox="0 0 16 22" fill="none" xmlns="http://www.w3.org/2000/svg">
<g id="ico-sound">
<mask id="path-1-outside-1_446_623" maskUnits="userSpaceOnUse" x="0" y="0" width="16" height="22" fill="black">
<rect fill="white" width="16" height="22"/>
<path fill-rule="evenodd" clip-rule="evenodd" d="M1 8H5L10 3V19L5 14H1V8ZM12 7V15L13.65 12.8C14.45 11.7333 14.45 10.2667 13.65 9.2L12 7Z"/>
</mask>
<path fill-rule="evenodd" clip-rule="evenodd" d="M1 8H5L10 3V19L5 14H1V8ZM12 7V15L13.65 12.8C14.45 11.7333 14.45 10.2667 13.65 9.2L12 7Z" fill="#EAEAEA"/>
<path d="M5 8V9H5.41421L5.70711 8.70711L5 8ZM1 8V7H0V8H1ZM10 3H11V0.585786L9.29289 2.29289L10 3ZM10 19L9.29289 19.7071L11 21.4142V19H10ZM5 14L5.70711 13.2929L5.41421 13H5V14ZM1 14H0V15H1V14ZM12 15H11V18L12.8 15.6L12 15ZM12 7L12.8 6.4L11 4V7H12ZM13.65 12.8L12.85 12.2L13.65 12.8ZM13.65 9.2L12.85 9.8L13.65 9.2ZM5 7H1V9H5V7ZM9.29289 2.29289L4.29289 7.29289L5.70711 8.70711L10.7071 3.70711L9.29289 2.29289ZM11 19V3H9V19H11ZM4.29289 14.7071L9.29289 19.7071L10.7071 18.2929L5.70711 13.2929L4.29289 14.7071ZM1 15H5V13H1V15ZM0 8V14H2V8H0ZM13 15V7H11V15H13ZM12.85 12.2L11.2 14.4L12.8 15.6L14.45 13.4L12.85 12.2ZM12.85 9.8C13.3833 10.5111 13.3833 11.4889 12.85 12.2L14.45 13.4C15.5167 11.9778 15.5167 10.0222 14.45 8.6L12.85 9.8ZM11.2 7.6L12.85 9.8L14.45 8.6L12.8 6.4L11.2 7.6Z" fill="black" fill-opacity="0.1" mask="url(#path-1-outside-1_446_623)"/>
</g>
</svg>
