<svg width="20" height="16" viewBox="0 0 20 16" fill="none" xmlns="http://www.w3.org/2000/svg">
<g id="ico-titles">
<mask id="path-1-outside-1_446_618" maskUnits="userSpaceOnUse" x="0" y="0" width="20" height="16" fill="black">
<rect fill="white" width="20" height="16"/>
<path fill-rule="evenodd" clip-rule="evenodd" d="M1 3C1 1.89543 1.89543 1 3 1H17C18.1046 1 19 1.89543 19 3V13C19 14.1046 18.1046 15 17 15H3C1.89543 15 1 14.1046 1 13V3ZM13 5H15C15.5523 5 16 5.44772 16 6C16 6.55228 15.5523 7 15 7H14C13.4477 7 13 7.44772 13 8C13 8.55228 13.4477 9 14 9H15C15.5523 9 16 9.44772 16 10C16 10.5523 15.5523 11 15 11H13C11.8954 11 11 10.1046 11 9V7C11 5.89543 11.8954 5 13 5ZM8 5H6C4.89543 5 4 5.89543 4 7V9C4 10.1046 4.89543 11 6 11H8C8.55228 11 9 10.5523 9 10C9 9.44772 8.55228 9 8 9H7C6.44772 9 6 8.55228 6 8C6 7.44772 6.44772 7 7 7H8C8.55228 7 9 6.55228 9 6C9 5.44772 8.55228 5 8 5Z"/>
</mask>
<path fill-rule="evenodd" clip-rule="evenodd" d="M1 3C1 1.89543 1.89543 1 3 1H17C18.1046 1 19 1.89543 19 3V13C19 14.1046 18.1046 15 17 15H3C1.89543 15 1 14.1046 1 13V3ZM13 5H15C15.5523 5 16 5.44772 16 6C16 6.55228 15.5523 7 15 7H14C13.4477 7 13 7.44772 13 8C13 8.55228 13.4477 9 14 9H15C15.5523 9 16 9.44772 16 10C16 10.5523 15.5523 11 15 11H13C11.8954 11 11 10.1046 11 9V7C11 5.89543 11.8954 5 13 5ZM8 5H6C4.89543 5 4 5.89543 4 7V9C4 10.1046 4.89543 11 6 11H8C8.55228 11 9 10.5523 9 10C9 9.44772 8.55228 9 8 9H7C6.44772 9 6 8.55228 6 8C6 7.44772 6.44772 7 7 7H8C8.55228 7 9 6.55228 9 6C9 5.44772 8.55228 5 8 5Z" fill="#EAEAEA"/>
<path d="M3 0C1.34315 0 0 1.34315 0 3H2C2 2.44772 2.44772 2 3 2V0ZM17 0H3V2H17V0ZM20 3C20 1.34315 18.6569 0 17 0V2C17.5523 2 18 2.44772 18 3H20ZM20 13V3H18V13H20ZM17 16C18.6569 16 20 14.6569 20 13H18C18 13.5523 17.5523 14 17 14V16ZM3 16H17V14H3V16ZM0 13C0 14.6569 1.34315 16 3 16V14C2.44772 14 2 13.5523 2 13H0ZM0 3V13H2V3H0ZM15 4H13V6H15V4ZM17 6C17 4.89543 16.1046 4 15 4V6H17ZM15 8C16.1046 8 17 7.10457 17 6H15V8ZM14 8H15V6H14V8ZM14 8V6C12.8954 6 12 6.89543 12 8H14ZM14 8H12C12 9.10457 12.8954 10 14 10V8ZM15 8H14V10H15V8ZM17 10C17 8.89543 16.1046 8 15 8V10H17ZM15 12C16.1046 12 17 11.1046 17 10H15V12ZM13 12H15V10H13V12ZM10 9C10 10.6569 11.3431 12 13 12V10C12.4477 10 12 9.55228 12 9H10ZM10 7V9H12V7H10ZM13 4C11.3431 4 10 5.34315 10 7H12C12 6.44772 12.4477 6 13 6V4ZM6 6H8V4H6V6ZM5 7C5 6.44772 5.44772 6 6 6V4C4.34315 4 3 5.34315 3 7H5ZM5 9V7H3V9H5ZM6 10C5.44772 10 5 9.55228 5 9H3C3 10.6569 4.34315 12 6 12V10ZM8 10H6V12H8V10ZM8 10V12C9.10457 12 10 11.1046 10 10H8ZM8 10H10C10 8.89543 9.10457 8 8 8V10ZM7 10H8V8H7V10ZM5 8C5 9.10457 5.89543 10 7 10V8H5ZM7 6C5.89543 6 5 6.89543 5 8H7V6ZM8 6H7V8H8V6ZM8 6V8C9.10457 8 10 7.10457 10 6H8ZM8 6H10C10 4.89543 9.10457 4 8 4V6Z" fill="black" fill-opacity="0.1" mask="url(#path-1-outside-1_446_618)"/>
</g>
</svg>
