<svg width="21" height="18" viewBox="0 0 21 18" fill="none" xmlns="http://www.w3.org/2000/svg">
<g id="ico-hd">
<g id="ico-gear">
<mask id="path-1-outside-1_446_612" maskUnits="userSpaceOnUse" x="0" y="0" width="17" height="18" fill="black">
<rect fill="white" width="17" height="18"/>
<path fill-rule="evenodd" clip-rule="evenodd" d="M6.30773 2C6.30773 1.44772 6.75545 1 7.30773 1H9.30773C9.86002 1 10.3077 1.44772 10.3077 2V2.6342C10.3077 3.05798 10.5788 3.42843 10.9589 3.61593C11.039 3.65546 11.1181 3.69673 11.1962 3.73968C11.5678 3.94416 12.0271 3.95399 12.3745 3.71072L12.8946 3.34653C13.3471 3.02975 13.9706 3.1397 14.2874 3.5921L15.4345 5.2304C15.7513 5.68281 15.6414 6.30636 15.1889 6.62313L14.669 6.98717C14.322 7.23016 14.174 7.66452 14.2382 8.08328C14.284 8.38213 14.3077 8.68827 14.3077 9C14.3077 9.31161 14.284 9.61771 14.2382 9.91655C14.174 10.3353 14.322 10.7696 14.669 11.0125L15.189 11.3766C15.6414 11.6934 15.7514 12.3169 15.4346 12.7694L14.2875 14.4076C13.9707 14.86 13.3471 14.97 12.8947 14.6532L12.3747 14.2891C12.0273 14.0458 11.5679 14.0556 11.1964 14.2601C11.1183 14.3031 11.0391 14.3444 10.9589 14.384C10.5789 14.5716 10.3077 14.942 10.3077 15.3658V16C10.3077 16.5523 9.86002 17 9.30773 17H7.30773C6.75545 17 6.30773 16.5523 6.30773 16V15.3658C6.30773 14.942 6.0366 14.5716 5.65657 14.384C5.57639 14.3444 5.49722 14.3031 5.41911 14.2601C5.04754 14.0556 4.58817 14.0458 4.24074 14.2891L3.72083 14.6532C3.26843 14.97 2.64485 14.86 2.32806 14.4076L1.18093 12.7693C0.864156 12.3169 0.974104 11.6934 1.42651 11.3766L1.94647 11.0125C2.29346 10.7696 2.44146 10.3353 2.37729 9.91656C2.33149 9.61772 2.30773 9.31161 2.30773 9C2.30773 8.68827 2.33151 8.38212 2.37733 8.08327C2.44154 7.66452 2.29354 7.23016 1.9465 6.98717L1.42659 6.62313C0.974176 6.30636 0.864222 5.68281 1.181 5.2304L2.32814 3.59211C2.64492 3.1397 3.26848 3.02976 3.72088 3.34655L4.24093 3.7107C4.58835 3.95398 5.04772 3.94416 5.4193 3.73968C5.49735 3.69673 5.57646 3.65546 5.65657 3.61593C6.03662 3.42843 6.30773 3.05798 6.30773 2.6342V2ZM8.30773 11C9.4123 11 10.3077 10.1046 10.3077 9C10.3077 7.89543 9.4123 7 8.30773 7C7.20317 7 6.30773 7.89543 6.30773 9C6.30773 10.1046 7.20317 11 8.30773 11Z"/>
</mask>
<path fill-rule="evenodd" clip-rule="evenodd" d="M6.30773 2C6.30773 1.44772 6.75545 1 7.30773 1H9.30773C9.86002 1 10.3077 1.44772 10.3077 2V2.6342C10.3077 3.05798 10.5788 3.42843 10.9589 3.61593C11.039 3.65546 11.1181 3.69673 11.1962 3.73968C11.5678 3.94416 12.0271 3.95399 12.3745 3.71072L12.8946 3.34653C13.3471 3.02975 13.9706 3.1397 14.2874 3.5921L15.4345 5.2304C15.7513 5.68281 15.6414 6.30636 15.1889 6.62313L14.669 6.98717C14.322 7.23016 14.174 7.66452 14.2382 8.08328C14.284 8.38213 14.3077 8.68827 14.3077 9C14.3077 9.31161 14.284 9.61771 14.2382 9.91655C14.174 10.3353 14.322 10.7696 14.669 11.0125L15.189 11.3766C15.6414 11.6934 15.7514 12.3169 15.4346 12.7694L14.2875 14.4076C13.9707 14.86 13.3471 14.97 12.8947 14.6532L12.3747 14.2891C12.0273 14.0458 11.5679 14.0556 11.1964 14.2601C11.1183 14.3031 11.0391 14.3444 10.9589 14.384C10.5789 14.5716 10.3077 14.942 10.3077 15.3658V16C10.3077 16.5523 9.86002 17 9.30773 17H7.30773C6.75545 17 6.30773 16.5523 6.30773 16V15.3658C6.30773 14.942 6.0366 14.5716 5.65657 14.384C5.57639 14.3444 5.49722 14.3031 5.41911 14.2601C5.04754 14.0556 4.58817 14.0458 4.24074 14.2891L3.72083 14.6532C3.26843 14.97 2.64485 14.86 2.32806 14.4076L1.18093 12.7693C0.864156 12.3169 0.974104 11.6934 1.42651 11.3766L1.94647 11.0125C2.29346 10.7696 2.44146 10.3353 2.37729 9.91656C2.33149 9.61772 2.30773 9.31161 2.30773 9C2.30773 8.68827 2.33151 8.38212 2.37733 8.08327C2.44154 7.66452 2.29354 7.23016 1.9465 6.98717L1.42659 6.62313C0.974176 6.30636 0.864222 5.68281 1.181 5.2304L2.32814 3.59211C2.64492 3.1397 3.26848 3.02976 3.72088 3.34655L4.24093 3.7107C4.58835 3.95398 5.04772 3.94416 5.4193 3.73968C5.49735 3.69673 5.57646 3.65546 5.65657 3.61593C6.03662 3.42843 6.30773 3.05798 6.30773 2.6342V2ZM8.30773 11C9.4123 11 10.3077 10.1046 10.3077 9C10.3077 7.89543 9.4123 7 8.30773 7C7.20317 7 6.30773 7.89543 6.30773 9C6.30773 10.1046 7.20317 11 8.30773 11Z" fill="#EAEAEA"/>
<path d="M1.42659 6.62313L2.00016 5.80397L1.42659 6.62313ZM1.181 5.2304L0.361852 4.65682L1.181 5.2304ZM2.37733 8.08327L1.38888 7.93172L2.37733 8.08327ZM1.9465 6.98717L1.37294 7.80633L1.9465 6.98717ZM2.37729 9.91656L1.38883 10.0681L2.37729 9.91656ZM1.18093 12.7693L2.00009 12.1958L1.18093 12.7693ZM3.72083 14.6532L4.29445 15.4723L3.72083 14.6532ZM2.32806 14.4076L1.50891 14.9812L2.32806 14.4076ZM5.41911 14.2601L5.90135 13.3841L5.41911 14.2601ZM10.9589 14.384L10.5163 13.4873L10.9589 14.384ZM14.2875 14.4076L13.4683 13.8341L14.2875 14.4076ZM12.8947 14.6532L13.4683 13.8341L12.8947 14.6532ZM15.4346 12.7694L14.6154 12.1958L15.4346 12.7694ZM14.2382 9.91655L15.2266 10.068L14.2382 9.91655ZM14.669 11.0125L15.2426 10.1934L14.669 11.0125ZM15.4345 5.2304L16.2537 4.65682L15.4345 5.2304ZM14.2874 3.5921L13.4682 4.16568L14.2874 3.5921ZM11.1962 3.73968L10.7141 4.61578L11.1962 3.73968ZM12.3745 3.71072L11.801 2.89157L12.3745 3.71072ZM10.9589 3.61593L10.5164 4.51272L10.9589 3.61593ZM12.3747 14.2891L12.9483 13.4699L12.3747 14.2891ZM11.1964 14.2601L10.7141 13.3841L11.1964 14.2601ZM9.30773 0H7.30773V2H9.30773V0ZM11.3077 2.6342V2H9.30773V2.6342H11.3077ZM11.6783 2.86358C11.5872 2.81345 11.4949 2.76529 11.4014 2.71915L10.5164 4.51272C10.5832 4.54564 10.649 4.58001 10.7141 4.61578L11.6783 2.86358ZM12.3211 2.52738L11.801 2.89157L12.9481 4.52987L13.4682 4.16568L12.3211 2.52738ZM16.2537 4.65682L15.1065 3.01852L13.4682 4.16568L14.6154 5.80397L16.2537 4.65682ZM15.2426 7.80633L15.7625 7.44229L14.6154 5.80397L14.0955 6.16801L15.2426 7.80633ZM15.3077 9C15.3077 8.6374 15.2801 8.28061 15.2266 7.93178L13.2497 8.23478C13.2879 8.48364 13.3077 8.73914 13.3077 9H15.3077ZM15.2266 10.068C15.2801 9.71925 15.3077 9.3625 15.3077 9H13.3077C13.3077 9.26072 13.2879 9.51618 13.2497 9.76506L15.2266 10.068ZM15.7626 10.5575L15.2426 10.1934L14.0955 11.8317L14.6154 12.1958L15.7626 10.5575ZM15.1066 14.9812L16.2537 13.3429L14.6154 12.1958L13.4683 13.8341L15.1066 14.9812ZM11.8011 15.1082L12.3211 15.4723L13.4683 13.8341L12.9483 13.4699L11.8011 15.1082ZM11.4015 15.2808C11.4951 15.2346 11.5875 15.1863 11.6786 15.1362L10.7141 13.3841C10.6491 13.4199 10.5831 13.4543 10.5163 13.4873L11.4015 15.2808ZM11.3077 16V15.3658H9.30773V16H11.3077ZM7.30773 18H9.30773V16H7.30773V18ZM5.30773 15.3658V16H7.30773V15.3658H5.30773ZM4.93686 15.1362C5.02801 15.1864 5.12041 15.2346 5.21401 15.2808L6.09912 13.4873C6.03236 13.4543 5.96642 13.4199 5.90135 13.3841L4.93686 15.1362ZM4.29445 15.4723L4.81436 15.1082L3.66713 13.47L3.14722 13.834L4.29445 15.4723ZM0.361783 13.3429L1.50891 14.9812L3.14722 13.834L2.00009 12.1958L0.361783 13.3429ZM1.37289 10.1934L0.852934 10.5575L2.00009 12.1958L2.52004 11.8317L1.37289 10.1934ZM1.30773 9C1.30773 9.36251 1.33538 9.71926 1.38883 10.0681L3.36575 9.76507C3.32761 9.51618 3.30773 9.26072 3.30773 9H1.30773ZM1.38888 7.93172C1.3354 8.28054 1.30773 8.63735 1.30773 9H3.30773C3.30773 8.73918 3.32762 8.4837 3.36578 8.23483L1.38888 7.93172ZM0.853028 7.44229L1.37294 7.80633L2.52007 6.16801L2.00016 5.80397L0.853028 7.44229ZM1.50899 3.01854L0.361852 4.65682L2.00016 5.80397L3.14729 4.16569L1.50899 3.01854ZM4.81452 2.89156L4.29447 2.52741L3.14729 4.16569L3.66734 4.52984L4.81452 2.89156ZM5.21411 2.71915C5.12059 2.76529 5.02826 2.81345 4.93717 2.86357L5.90143 4.61578C5.96644 4.58 6.03232 4.54564 6.09903 4.51272L5.21411 2.71915ZM5.30773 2V2.6342H7.30773V2H5.30773ZM9.30773 9C9.30773 9.55228 8.86002 10 8.30773 10V12C9.96459 12 11.3077 10.6569 11.3077 9H9.30773ZM8.30773 8C8.86002 8 9.30773 8.44772 9.30773 9H11.3077C11.3077 7.34315 9.96459 6 8.30773 6V8ZM7.30773 9C7.30773 8.44772 7.75545 8 8.30773 8V6C6.65088 6 5.30773 7.34315 5.30773 9H7.30773ZM8.30773 10C7.75545 10 7.30773 9.55228 7.30773 9H5.30773C5.30773 10.6569 6.65088 12 8.30773 12V10ZM6.09903 4.51272C6.75882 4.1872 7.30773 3.50289 7.30773 2.6342H5.30773C5.30773 2.62785 5.31065 2.63244 5.29854 2.65019C5.28472 2.67046 5.25685 2.69806 5.21411 2.71915L6.09903 4.51272ZM2.00016 5.80397V5.80397L0.361852 4.65682C-0.271711 5.56164 -0.0518025 6.80875 0.853028 7.44229L2.00016 5.80397ZM3.36578 8.23483C3.47725 7.50782 3.2314 6.66607 2.52007 6.16801L1.37294 7.80633C1.36775 7.8027 1.37319 7.80296 1.38079 7.82306C1.38946 7.84599 1.3961 7.88463 1.38888 7.93172L3.36578 8.23483ZM2.52004 11.8317C3.23128 11.3337 3.47717 10.492 3.36575 9.76507L1.38883 10.0681C1.39605 10.1151 1.38941 10.1537 1.38074 10.1767C1.37314 10.1968 1.3677 10.197 1.37289 10.1934L2.52004 11.8317ZM2.00009 12.1958H2.00009L0.852934 10.5575C-0.0518781 11.191 -0.271774 12.4381 0.361783 13.3429L2.00009 12.1958ZM3.14722 13.834H3.14722L1.50891 14.9812C2.14249 15.886 3.38964 16.1059 4.29445 15.4723L3.14722 13.834ZM5.90135 13.3841C5.25573 13.0287 4.37927 12.9713 3.66713 13.47L4.81436 15.1082C4.80917 15.1118 4.81122 15.1069 4.83256 15.1066C4.85693 15.1063 4.89532 15.1133 4.93686 15.1362L5.90135 13.3841ZM7.30773 15.3658C7.30773 14.4971 6.7588 13.8128 6.09912 13.4873L5.21401 15.2808C5.25678 15.3019 5.28468 15.3295 5.29852 15.3498C5.31065 15.3676 5.30773 15.3722 5.30773 15.3658H7.30773ZM7.30773 16H5.30773C5.30773 17.1046 6.20317 18 7.30773 18V16ZM9.30773 16V18C10.4123 18 11.3077 17.1046 11.3077 16H9.30773ZM10.5163 13.4873C9.85667 13.8128 9.30773 14.4971 9.30773 15.3658H11.3077C11.3077 15.3722 11.3048 15.3676 11.3169 15.3498C11.3308 15.3295 11.3587 15.3019 11.4015 15.2808L10.5163 13.4873ZM13.4683 13.8341L12.3211 15.4723C13.2259 16.1059 14.473 15.886 15.1066 14.9812L13.4683 13.8341ZM14.6154 12.1958V12.1958L16.2537 13.3429C16.8873 12.4381 16.6674 11.191 15.7626 10.5575L14.6154 12.1958ZM13.2497 9.76506C13.1383 10.492 13.3842 11.3337 14.0955 11.8317L15.2426 10.1934C15.2478 10.197 15.2423 10.1967 15.2347 10.1767C15.2261 10.1537 15.2194 10.1151 15.2266 10.068L13.2497 9.76506ZM14.0955 6.16801C13.3841 6.66607 13.1383 7.50781 13.2497 8.23478L15.2266 7.93178C15.2194 7.88467 15.2261 7.84602 15.2347 7.82307C15.2423 7.80296 15.2478 7.80269 15.2426 7.80633L14.0955 6.16801ZM14.6154 5.80397V5.80397L15.7625 7.44229C16.6673 6.80875 16.8872 5.56164 16.2537 4.65682L14.6154 5.80397ZM13.4682 4.16568V4.16568L15.1065 3.01852C14.473 2.11371 13.2259 1.89382 12.3211 2.52738L13.4682 4.16568ZM10.7141 4.61578C11.3596 4.97103 12.236 5.02852 12.9481 4.52987L11.801 2.89157C11.8061 2.88793 11.8041 2.89292 11.7827 2.89317C11.7583 2.89346 11.7199 2.88647 11.6783 2.86358L10.7141 4.61578ZM9.30773 2.6342C9.30773 3.50289 9.85665 4.1872 10.5164 4.51272L11.4014 2.71915C11.3586 2.69806 11.3308 2.67046 11.3169 2.65019C11.3048 2.63244 11.3077 2.62785 11.3077 2.6342H9.30773ZM3.66734 4.52984C4.37949 5.02851 5.25588 4.97103 5.90143 4.61578L4.93717 2.86357C4.89559 2.88646 4.85716 2.89345 4.83275 2.89317C4.81139 2.89292 4.80933 2.88793 4.81452 2.89156L3.66734 4.52984ZM7.30773 0C6.20317 0 5.30773 0.895431 5.30773 2H7.30773V0ZM12.9483 13.4699C12.2362 12.9713 11.3597 13.0287 10.7141 13.3841L11.6786 15.1362C11.7202 15.1133 11.7585 15.1063 11.7829 15.1066C11.8043 15.1068 11.8063 15.1118 11.8011 15.1082L12.9483 13.4699ZM3.14729 4.16569L3.14729 4.16569L4.29447 2.52741C3.38966 1.89383 2.14255 2.11372 1.50899 3.01854L3.14729 4.16569ZM9.30773 2H11.3077C11.3077 0.89543 10.4123 0 9.30773 0V2Z" fill="black" fill-opacity="0.1" mask="url(#path-1-outside-1_446_612)"/>
</g>
<rect id="background" x="8" y="1" width="13" height="9" rx="1" fill="#EE1A26"/>
<g id="HD" filter="url(#filter0_d_446_612)">
<path d="M9.99999 3H11V5H13V3H14V8H13V6H11V8H9.99999V3Z" fill="#F1F2F1"/>
<path d="M15 3H18V4H16V7H18V8H15V3Z" fill="#F1F2F1"/>
<path d="M18 7V4H19V7H18Z" fill="#F1F2F1"/>
</g>
</g>
<defs>
<filter id="filter0_d_446_612" x="9.99999" y="3" width="9" height="6" filterUnits="userSpaceOnUse" color-interpolation-filters="sRGB">
<feFlood flood-opacity="0" result="BackgroundImageFix"/>
<feColorMatrix in="SourceAlpha" type="matrix" values="0 0 0 0 0 0 0 0 0 0 0 0 0 0 0 0 0 0 127 0" result="hardAlpha"/>
<feOffset dy="1"/>
<feColorMatrix type="matrix" values="0 0 0 0 0.337255 0 0 0 0 0.0392157 0 0 0 0 0.0588235 0 0 0 1 0"/>
<feBlend mode="normal" in2="BackgroundImageFix" result="effect1_dropShadow_446_612"/>
<feBlend mode="normal" in="SourceGraphic" in2="effect1_dropShadow_446_612" result="shape"/>
</filter>
</defs>
</svg>
