<svg width="24" height="20" viewBox="0 0 24 20" fill="none" xmlns="http://www.w3.org/2000/svg">
<g id="ico-tv">
<mask id="path-1-outside-1_446_606" maskUnits="userSpaceOnUse" x="0" y="0" width="24" height="20" fill="black">
<rect fill="white" width="24" height="20"/>
<path fill-rule="evenodd" clip-rule="evenodd" d="M2 1C1.44769 1 1 1.44775 1 2V5C1 5.55228 1.44772 6 2 6C2.55228 6 3 5.55228 3 5V4C3 3.44772 3.44772 3 4 3H20C20.5523 3 21 3.44772 21 4V16C21 16.5523 20.5523 17 20 17H15C14.4477 17 14 17.4477 14 18C14 18.5523 14.4477 19 15 19H22C22.5523 19 23 18.5522 23 18V2C23 1.44775 22.5523 1 22 1H2ZM9.94525 18.0016C10.0058 18.5506 10.4477 19 11 19C11.5523 19 12.0048 18.5508 11.9552 18.0007C11.48 12.723 7.277 8.52001 1.99926 8.04478C1.4492 7.99524 1 8.44772 1 9C1 9.55229 1.44945 9.99417 1.9984 10.0548C6.17131 10.5153 9.4847 13.8288 9.94525 18.0016ZM7 19C7.55228 19 8.0075 18.5497 7.92953 18.003C7.49202 14.9349 5.0651 12.508 1.99703 12.0705C1.45028 11.9925 1 12.4477 1 13C1 13.5523 1.45223 13.9896 1.99362 14.0987C3.95791 14.4948 5.50523 16.0421 5.90128 18.0064C6.01043 18.5478 6.44772 19 7 19ZM1 17C1 16.4477 1.46 15.9837 1.98189 16.1644C2.84887 16.4646 3.53544 17.1512 3.83561 18.0181C4.01631 18.54 3.55228 19 3 19H2C1.44772 19 1 18.5523 1 18V17Z"/>
</mask>
<path fill-rule="evenodd" clip-rule="evenodd" d="M2 1C1.44769 1 1 1.44775 1 2V5C1 5.55228 1.44772 6 2 6C2.55228 6 3 5.55228 3 5V4C3 3.44772 3.44772 3 4 3H20C20.5523 3 21 3.44772 21 4V16C21 16.5523 20.5523 17 20 17H15C14.4477 17 14 17.4477 14 18C14 18.5523 14.4477 19 15 19H22C22.5523 19 23 18.5522 23 18V2C23 1.44775 22.5523 1 22 1H2ZM9.94525 18.0016C10.0058 18.5506 10.4477 19 11 19C11.5523 19 12.0048 18.5508 11.9552 18.0007C11.48 12.723 7.277 8.52001 1.99926 8.04478C1.4492 7.99524 1 8.44772 1 9C1 9.55229 1.44945 9.99417 1.9984 10.0548C6.17131 10.5153 9.4847 13.8288 9.94525 18.0016ZM7 19C7.55228 19 8.0075 18.5497 7.92953 18.003C7.49202 14.9349 5.0651 12.508 1.99703 12.0705C1.45028 11.9925 1 12.4477 1 13C1 13.5523 1.45223 13.9896 1.99362 14.0987C3.95791 14.4948 5.50523 16.0421 5.90128 18.0064C6.01043 18.5478 6.44772 19 7 19ZM1 17C1 16.4477 1.46 15.9837 1.98189 16.1644C2.84887 16.4646 3.53544 17.1512 3.83561 18.0181C4.01631 18.54 3.55228 19 3 19H2C1.44772 19 1 18.5523 1 18V17Z" fill="#EAEAEA"/>
<path d="M1.98189 16.1644L1.65471 17.1093L1.98189 16.1644ZM3.83561 18.0181L2.89065 18.3453L3.83561 18.0181ZM5.90128 18.0064L4.921 18.204L5.90128 18.0064ZM1.99362 14.0987L1.79597 15.079L1.99362 14.0987ZM7.92953 18.003L6.93955 18.1441L7.92953 18.003ZM1.99703 12.0705L1.85586 13.0605L1.99703 12.0705ZM11.9552 18.0007L10.9593 18.0904L11.9552 18.0007ZM2 2V0C0.895368 0 0 0.895509 0 2H2ZM2 5V2H0V5H2ZM2 4V5H4V4H2ZM20 2H4V4H20V2ZM22 16V4H20V16H22ZM15 18H20V16H15V18ZM22 18H15V20H22V18ZM22 18V20C23.1046 20 24 19.1045 24 18H22ZM22 2V18H24V2H22ZM22 2H24C24 0.895509 23.1046 0 22 0V2ZM2 2H22V0H2V2ZM1.90957 9.04075C6.70588 9.47263 10.5274 13.2941 10.9593 18.0904L12.9512 17.9111C12.4326 12.1518 7.84811 7.56739 2.08894 7.0488L1.90957 9.04075ZM10.9392 17.8919C10.4273 13.2536 6.74645 9.5727 2.1081 9.06079L1.8887 11.0487C5.59617 11.4579 8.54211 14.4039 8.95128 18.1113L10.9392 17.8919ZM1.85586 13.0605C4.48375 13.4352 6.5648 15.5163 6.93955 18.1441L8.91952 17.8618C8.41923 14.3536 5.64645 11.5808 2.13821 11.0805L1.85586 13.0605ZM6.88155 17.8087C6.40593 15.4498 4.55017 13.5941 2.19126 13.1185L1.79597 15.079C3.36564 15.3955 4.60452 16.6343 4.921 18.204L6.88155 17.8087ZM4.78057 17.6909C4.38008 16.5342 3.46581 15.6199 2.30907 15.2194L1.65471 17.1093C2.23193 17.3092 2.6908 17.7681 2.89065 18.3453L4.78057 17.6909ZM2 20H3V18H2V20ZM0 17V18H2V17H0ZM2 18H0C0 19.1046 0.895431 20 2 20V18ZM2.30907 15.2194C1.66762 14.9973 1.04682 15.185 0.625721 15.5645C0.224671 15.926 0 16.455 0 17H2C2 17.0003 2.00005 17.003 1.99759 17.0086C1.99549 17.0135 1.98764 17.0295 1.96476 17.0501C1.94101 17.0715 1.89712 17.1008 1.83184 17.1157C1.76239 17.1317 1.69824 17.1244 1.65471 17.1093L2.30907 15.2194ZM2.89065 18.3453C2.87558 18.3018 2.86832 18.2376 2.88425 18.1682C2.89922 18.1029 2.92848 18.059 2.94988 18.0352C2.97051 18.0124 2.98654 18.0045 2.99138 18.0024C2.99705 18 2.99968 18 3 18V20C3.54501 20 4.07399 19.7753 4.43547 19.3743C4.81503 18.9532 5.00267 18.3324 4.78057 17.6909L2.89065 18.3453ZM4.921 18.204C5.0997 19.0903 5.85744 20 7 20V18C6.99951 18 7 18 7.00086 18.0002C7.00165 18.0003 7.0014 18.0004 6.99987 17.9997C6.99678 17.9984 6.98582 17.9931 6.96988 17.9781C6.93466 17.9449 6.89681 17.8844 6.88155 17.8087L4.921 18.204ZM0 13C0 14.1426 0.909692 14.9003 1.79597 15.079L2.19126 13.1185C2.11558 13.1032 2.0551 13.0653 2.02194 13.0301C2.00694 13.0142 2.00158 13.0032 2.00028 13.0001C1.99963 12.9986 1.99968 12.9984 1.99984 12.9991C2.00002 13 2 13.0005 2 13H0ZM6.93955 18.1441C6.9367 18.1242 6.93822 18.0966 6.94771 18.0686C6.95662 18.0423 6.96929 18.0249 6.97856 18.0152C6.99507 17.9979 7.00465 18 7 18V20C8.05951 20 9.09708 19.107 8.91952 17.8618L6.93955 18.1441ZM2.13821 11.0805C0.893036 10.9029 0 11.9405 0 13H2C2 12.9954 2.00205 13.0049 1.9848 13.0214C1.97511 13.0307 1.9577 13.0434 1.9314 13.0523C1.90339 13.0618 1.87585 13.0633 1.85586 13.0605L2.13821 11.0805ZM13 18C13 19.1046 13.8954 20 15 20V18H13ZM15 16C13.8954 16 13 16.8954 13 18H15V16ZM20 16V18C21.1046 18 22 17.1046 22 16H20ZM0 9C0 10.1293 0.902746 10.9399 1.8887 11.0487L2.1081 9.06079C2.06575 9.05611 2.0314 9.03645 2.01207 9.01647C2.00338 9.00749 2.00049 9.00133 1.99997 9.00011C1.99984 8.99981 2 9.00073 2 9H0ZM20 4V4H22C22 2.89543 21.1046 2 20 2V4ZM2.08894 7.0488C0.894114 6.94122 0 7.9214 0 9H2C2 8.99696 2.00087 9.00356 1.9903 9.01383C1.98447 9.0195 1.97379 9.02753 1.95726 9.03363C1.93947 9.0402 1.9219 9.04186 1.90957 9.04075L2.08894 7.0488ZM4 4H4V2C2.89543 2 2 2.89543 2 4H4ZM11 18C10.9993 18 11.0002 18.0002 10.9999 18C10.9987 17.9995 10.9925 17.9966 10.9835 17.9879C10.9635 17.9686 10.9439 17.9343 10.9392 17.8919L8.95128 18.1113C9.0601 19.0973 9.87065 20 11 20V18ZM2 7C3.10457 7 4 6.10457 4 5H2V7ZM11 20C12.0786 20 13.0588 19.1059 12.9512 17.9111L10.9593 18.0904C10.9581 18.0781 10.9598 18.0605 10.9664 18.0427C10.9725 18.0262 10.9805 18.0155 10.9862 18.0097C10.9964 17.9991 11.003 18 11 18V20ZM0 5C0 6.10457 0.895431 7 2 7V5H0Z" fill="black" fill-opacity="0.1" mask="url(#path-1-outside-1_446_606)"/>
</g>
</svg>
